<?xml version="1.0" encoding="UTF-8"?>
<!DOCTYPE svg PUBLIC "-//W3C//DTD SVG 1.1//EN" "http://www.w3.org/Graphics/SVG/1.1/DTD/svg11.dtd">
<svg xmlns="http://www.w3.org/2000/svg" xmlns:xlink="http://www.w3.org/1999/xlink">
	<symbol id="exclamation-full" viewBox="0 0 512 512">
		<path class="lexicon-icon-outline" d="M256,0C114.6,0,0,114.6,0,256s114.6,256,256,256s256-114.6,256-256S397.4,0,256,0z M256,384c-17.7,0-32-14.3-32-32s14.3-32,32-32s32,14.3,32,32S273.7,384,256,384z M272,288h-32l-16-160h64L272,288z"></path>
	</symbol>
	<symbol id="info-circle" viewBox="0 0 512 512">
		<path class="lexicon-icon-outline" d="M437,75C388.7,26.6,324.4,0,256,0C187.6,0,123.3,26.6,75,75C26.6,123.3,0,187.6,0,256c0,68.4,26.6,132.7,75,181c48.4,48.4,112.6,75,181,75c68.4,0,132.7-26.6,181-75c48.4-48.4,75-112.6,75-181C512,187.6,485.4,123.3,437,75z M288,384c0,17.7-14.3,32-32,32c-17.7,0-32-14.3-32-32V224c0-17.7,14.3-32,32-32c17.7,0,32,14.3,32,32V384z M256,160c-17.7,0-32-14.3-32-32c0-17.7,14.3-32,32-32s32,14.3,32,32C288,145.7,273.7,160,256,160z"></path>
	</symbol>
	<symbol id="check-circle-full" viewBox="0 0 512 512">
		<path class="lexicon-icon-outline" d="M471.2,117.7L280.3,340.8c-5.9,6.8-14.6,11.2-24.3,11.2c-8.8,0-16.8-3.6-22.6-9.4l-96-96.1 c-29.1-28.9,16.1-74.2,45.2-45.3l71.6,71.7L423.7,74.8c2.2-2.5,4.7-3.9,7.1-5.5C385,26.5,323.7,0,256,0C114.6,0,0,114.6,0,256 s114.6,256,256,256s256-114.6,256-256C512,205,496.9,157.6,471.2,117.7z" />
	</symbol>
	<symbol id="warning-full" viewBox="0 0 512 512">
		<path class="lexicon-icon-outline" d="M506.3,409.3l-214-353.7c-16.8-30.6-55.8-32.6-72.6,0L5.7,409.3C-8,436.5,5,480,42,480h428C506,480,522.5,436.5,506.3,409.3z M224,392c0-42.5,64-42,64,0C288,433.5,224,434.5,224,392z M288,288c0,42.5-64,40.5-64,0c0-20.4,0-83.6,0-104c0-43,64-43.5,64,0C288,204.4,288,267.6,288,288z"></path>
	</symbol>
	<symbol id="times" viewBox="0 0 512 512">
		<path class="lexicon-icon-outline" d="M300.4,256L467,89.4c29.6-29.6-14.8-74.1-44.4-44.4L256,211.6L89.4,45C59.8,15.3,15.3,59.8,45,89.4L211.6,256L45,422.6 c-29.7,29.7,14.7,74.1,44.4,44.4L256,300.4L422.6,467c29.7,29.7,74.1-14.7,44.4-44.4L300.4,256z" />
	</symbol>
</svg>